<svg width="1440" height="600" viewBox="0 0 1440 600" fill="none" xmlns="http://www.w3.org/2000/svg">
<g clip-path="url(#clip0)">
<path d="M-86.1039 366.858L-28.7845 309.823C28.5349 252.789 143.174 138.72 251.178 144.689C359.183 150.658 460.553 276.666 568.008 292.576C675.421 309.236 789.024 213.923 899.205 180.505C1009.39 147.086 1116.35 171.811 1223.22 198.412C1330.08 225.013 1437.05 249.738 1490.46 263.414L1543.91 276.339L1524.01 636.454L1470.01 633.469C1416.01 630.485 1308 624.515 1200 618.546C1091.99 612.577 983.989 606.608 875.985 600.638C767.98 594.669 659.976 588.7 551.971 582.731C443.967 576.761 335.962 570.792 227.958 564.823C119.954 558.854 11.949 552.884 -42.0532 549.9L-96.0554 546.915L-86.1039 366.858Z" fill="#C62368"/>
<path d="M-89.0483 420.134L-31.7288 363.099C25.5906 306.065 140.229 191.996 248.234 197.965C356.238 203.934 457.608 329.942 565.064 345.852C672.477 362.512 786.079 267.199 896.261 233.781C1006.44 200.362 1113.41 225.088 1220.27 251.688C1327.14 278.289 1434.11 303.014 1487.52 316.69L1540.97 329.615L1521.07 689.73L1467.07 686.745C1413.06 683.761 1305.06 677.792 1197.05 671.822C1089.05 665.853 981.045 659.884 873.041 653.915C765.036 647.945 657.032 641.976 549.027 636.007C441.023 630.038 333.018 624.068 225.014 618.099C117.009 612.13 9.0047 606.16 -44.9975 603.176L-98.9998 600.191L-89.0483 420.134Z" fill="#FA7268"/>
</g>
<defs>
<clipPath id="clip0">
<rect width="1622.54" height="601.107" fill="white" transform="translate(-65.8281) rotate(3.16344)"/>
</clipPath>
</defs>
</svg>
