<svg width="1280" height="457" viewBox="0 0 1280 457" fill="none" xmlns="http://www.w3.org/2000/svg">
<g clip-path="url(#clip0)">
<path d="M1289.73 258.487C1289.73 258.487 1280.42 267.483 1230.76 266.284C1181.11 265.084 1104.16 464.841 1017.5 456.701C924.387 437.809 845.465 321.16 769.735 311.264C683.068 325.974 596.401 365.597 509.735 395.587C423.068 425.578 336.402 411.297 249.735 380.306C163.068 349.887 76.4015 304.187 33.0681 281.337L-10.2652 258.487L-10.2653 29.9872L33.0681 29.9872C76.4014 29.9872 163.068 29.9872 249.735 29.9872C336.402 29.9872 423.068 29.9872 509.735 29.9872C596.401 29.9871 683.068 29.9871 769.735 29.9871C856.402 29.9871 943.068 29.9871 1029.73 29.9871C1116.4 29.9871 1203.07 29.9871 1246.4 29.9871L1289.73 29.9871L1289.73 258.487Z" fill="#C62368"/>
<path d="M1300 228.5C1300 228.5 1290.69 237.496 1241.03 236.297C1191.37 235.097 1114.43 434.854 1027.76 426.713C934.652 407.822 855.73 291.173 780 281.277C693.333 295.987 606.667 335.609 520 365.6C433.333 395.591 346.667 381.309 260 350.319C173.333 319.9 86.6667 274.2 43.3333 251.35L-2.52115e-05 228.5L-4.51876e-05 0.000102829L43.3333 9.90402e-05C86.6667 9.52519e-05 173.333 8.76753e-05 260 8.00986e-05C346.667 7.2522e-05 433.333 6.49454e-05 520 5.73687e-05C606.667 4.97921e-05 693.333 4.22154e-05 780 3.46388e-05C866.667 2.70622e-05 953.333 1.94855e-05 1040 1.19089e-05C1126.67 4.33224e-06 1213.33 -3.2444e-06 1256.67 -7.03272e-06L1300 -1.0821e-05L1300 228.5Z" fill="#FA7268"/>
</g>
<defs>
<clipPath id="clip0">
<rect width="1300" height="457" fill="white" transform="translate(1300 457) rotate(180)"/>
</clipPath>
</defs>
</svg>
